<svg width="24" height="24" viewBox="0 0 24 24" fill="none" xmlns="http://www.w3.org/2000/svg">
<path d="M3.23526 2.44629V24H10.6598L12.0824 13.0555L10.6598 2.44629H3.23526Z" fill="#3D4959"/>
<path d="M10.6599 2.44629H18.0844V24H10.6599V2.44629Z" fill="#2B333E"/>
<path d="M5.91556 0V21.5537H13.3406L14.7627 10.6092L13.3406 0H5.91556Z" fill="#EBF3FE"/>
<path d="M13.3405 0H20.7647V21.5537H13.3405V0Z" fill="#D0E4FC"/>
<path d="M12.9085 7.95941C12.5019 7.58071 11.9703 7.37207 11.4117 7.37207C10.8239 7.37207 10.272 7.60016 9.85777 8.01445C9.44273 8.42943 9.21417 8.98124 9.21417 9.56826C9.21417 10.1553 9.44274 10.707 9.85781 11.1221L13.3405 14.6044L14.7627 10.9882L13.3405 8.36174L12.9085 7.95941Z" fill="#FF608B"/>
<path d="M16.8225 8.01448C16.4073 7.5994 15.8555 7.37079 15.2686 7.37079C14.7104 7.37079 14.1789 7.5798 13.7719 7.95926L13.3406 8.36173V14.6044L16.8225 11.1221C17.2375 10.707 17.4661 10.1552 17.4661 9.56829C17.4661 8.98127 17.2375 8.42951 16.8225 8.01448Z" fill="#EA2A78"/>
<path d="M8.06311 1.8894H9.46936V3.29565H8.06311V1.8894Z" fill="#FF608B"/>
<path d="M17.2253 17.9115H18.6315V19.3177H17.2253V17.9115Z" fill="#EA2A78"/>
</svg>
