<svg width="32" height="32" viewBox="0 0 32 32" fill="none" xmlns="http://www.w3.org/2000/svg">
<g opacity="0.2" clip-path="url(#clip0_1304_4617)">
<path d="M16 0C7.17761 0 0 7.17755 0 16C0 24.8225 7.17755 32 15.9999 32H16L20.1645 16.4877L16 0Z" fill="#E6B261"/>
<path d="M32 16C32 7.17761 24.8225 0 16 0V32C24.8225 31.9999 32 24.8224 32 16Z" fill="#D2985B"/>
<path d="M5.41287 9.90015C4.37394 11.6964 3.77869 13.78 3.77869 16L8.83787 17.1448L15.9999 16L10.2207 11.5448L5.41287 9.90015Z" fill="#FF608B"/>
<path d="M15.9999 3.77881C13.7681 3.77881 11.6745 4.38056 9.87183 5.42968L11.6409 10.5764L15.9999 16.0001L17.0947 8.76412L15.9999 3.77881Z" fill="#ACF745"/>
<path d="M5.42957 22.1281C6.50463 23.9754 8.04969 25.5168 9.90013 26.5871L12.791 23.8267L15.9999 16L9.87188 18.7359L5.42957 22.1281Z" fill="#FF608B"/>
<path d="M9.90015 26.5871C11.6964 27.6261 13.7799 28.2213 16 28.2213H16L17.0948 24.576L16 16L9.90015 26.5871Z" fill="#4F5F73"/>
<path d="M28.2212 16.0001C28.2212 13.7683 27.6194 11.6747 26.5703 9.87207L22.4663 10.9988L15.9999 16.0001L23.1163 16.8559L28.2212 16.0001Z" fill="#2B333E"/>
<path d="M22.0998 5.413C20.3035 4.37406 18.2199 3.77881 15.9999 3.77881V16.0001L20.1644 10.2562L22.0998 5.413Z" fill="#2B333E"/>
<path d="M26.587 22.0999L22.6979 18.736L15.9999 16L19.22 23.6049L22.1279 26.5704C23.9753 25.4953 25.5167 23.9503 26.587 22.0999Z" fill="#2B333E"/>
<path d="M3.77869 16C3.77869 16.0001 3.77869 16.0001 3.77869 16C3.77869 18.2318 4.38044 20.3254 5.42956 22.128L15.9999 16H3.77869Z" fill="#4F5F73"/>
<path d="M9.87196 5.42969C8.02465 6.50481 6.48321 8.04981 5.41296 9.90025L16 16.0001L9.87196 5.42969Z" fill="#4F5F73"/>
<path d="M26.5871 22.0998C27.6261 20.3036 28.2213 18.2201 28.2213 16H16L26.5871 22.0998Z" fill="#EA2A78"/>
<path d="M16 28.2213C18.2318 28.2213 20.3254 27.6195 22.128 26.5704L16 16V28.2213Z" fill="#EA2A78"/>
<path d="M26.5704 9.8719C25.4953 8.02459 23.9502 6.48315 22.0998 5.41284L16 15.9999L26.5704 9.8719Z" fill="#EA2A78"/>
<path d="M16 11.1584C13.3304 11.1584 11.1586 13.3303 11.1586 15.9999C11.1586 18.6694 13.3304 20.8413 16 20.8413L17.2601 16.1474L16 11.1584Z" fill="#E6B261"/>
<path d="M20.8414 15.9999C20.8414 13.3303 18.6696 11.1584 16 11.1584V20.8413C18.6696 20.8413 20.8414 18.6694 20.8414 15.9999Z" fill="#D2985B"/>
<path d="M15.0625 13.2639V15.0624H13.3158V16.9374H15.0625V18.7358H16L16.5168 15.9999L16 13.2639H15.0625Z" fill="#FFF79F"/>
<path d="M16.9375 16.9374H18.6842V15.0624H16.9375V13.2639H16V18.7358H16.9375V16.9374Z" fill="#FDE800"/>
</g>
<defs>
<clipPath id="clip0_1304_4617">
<rect width="32" height="32" fill="white"/>
</clipPath>
</defs>
</svg>
