<svg width="32" height="32" viewBox="0 0 32 32" fill="none" xmlns="http://www.w3.org/2000/svg">
<g clip-path="url(#clip0_1304_3117)">
<path d="M16 0C7.17761 0 0 7.17755 0 16C0 24.8225 7.17755 32 15.9999 32H16L20.1645 16.4877L16 0Z" fill="#E6B261"/>
<path d="M31.9999 16C31.9999 7.17761 24.8225 0 16 0V32C24.8225 31.9999 31.9999 24.8224 31.9999 16Z" fill="#D2985B"/>
<path d="M5.41294 9.90015C4.374 11.6964 3.77875 13.78 3.77875 16L8.83793 17.1448L16 16L10.2208 11.5448L5.41294 9.90015Z" fill="#FF608B"/>
<path d="M16 3.77881C13.7682 3.77881 11.6746 4.38056 9.87192 5.42968L11.641 10.5764L16 16.0001L17.0948 8.76412L16 3.77881Z" fill="#ACF745"/>
<path d="M5.42963 22.1281C6.50469 23.9754 8.04975 25.5168 9.90019 26.5871L12.7911 23.8267L16 16L9.87194 18.7359L5.42963 22.1281Z" fill="#FF608B"/>
<path d="M9.90018 26.5871C11.6964 27.6261 13.7799 28.2213 16 28.2213H16.0001L17.0949 24.576L16 16L9.90018 26.5871Z" fill="#4F5F73"/>
<path d="M28.2213 16.0001C28.2213 13.7683 27.6195 11.6747 26.5704 9.87207L22.4664 10.9988L16 16.0001L23.1164 16.8559L28.2213 16.0001Z" fill="#2B333E"/>
<path d="M22.0998 5.413C20.3036 4.37406 18.22 3.77881 16 3.77881V16.0001L20.1645 10.2562L22.0998 5.413Z" fill="#2B333E"/>
<path d="M26.5871 22.0999L22.698 18.736L16 16L19.2201 23.6049L22.128 26.5704C23.9753 25.4953 25.5168 23.9503 26.5871 22.0999Z" fill="#2B333E"/>
<path d="M3.77875 16C3.77875 16.0001 3.77875 16.0001 3.77875 16C3.77875 18.2318 4.3805 20.3254 5.42962 22.128L16 16H3.77875Z" fill="#4F5F73"/>
<path d="M9.87199 5.42969C8.02468 6.50481 6.48324 8.04981 5.41299 9.90025L16 16.0001L9.87199 5.42969Z" fill="#4F5F73"/>
<path d="M26.5871 22.0998C27.626 20.3036 28.2213 18.2201 28.2213 16H16L26.5871 22.0998Z" fill="#EA2A78"/>
<path d="M16 28.2213C18.2317 28.2213 20.3253 27.6195 22.128 26.5704L16 16V28.2213Z" fill="#EA2A78"/>
<path d="M26.5703 9.8719C25.4953 8.02459 23.9502 6.48315 22.0998 5.41284L16 15.9999L26.5703 9.8719Z" fill="#EA2A78"/>
<path d="M16 11.1584C13.3304 11.1584 11.1585 13.3303 11.1585 15.9999C11.1585 18.6694 13.3304 20.8413 16 20.8413L17.2601 16.1474L16 11.1584Z" fill="#E6B261"/>
<path d="M20.8414 15.9999C20.8414 13.3303 18.6695 11.1584 16 11.1584V20.8413C18.6696 20.8413 20.8414 18.6694 20.8414 15.9999Z" fill="#D2985B"/>
<path d="M15.0625 13.2639V15.0624H13.3158V16.9374H15.0625V18.7358H16L16.5168 15.9999L16 13.2639H15.0625Z" fill="#FFF79F"/>
<path d="M16.9375 16.9374H18.6842V15.0624H16.9375V13.2639H16V18.7358H16.9375V16.9374Z" fill="#FDE800"/>
</g>
<defs>
<clipPath id="clip0_1304_3117">
<rect width="32" height="32" fill="white"/>
</clipPath>
</defs>
</svg>
