<svg width="32" height="32" viewBox="0 0 32 32" fill="none" xmlns="http://www.w3.org/2000/svg">
<mask id="mask0_1304_4658" style="mask-type:luminance" maskUnits="userSpaceOnUse" x="1" y="1" width="30" height="30">
<path d="M16 29.3334C23.364 29.3334 29.3333 23.3641 29.3333 16.0001C29.3333 8.63608 23.364 2.66675 16 2.66675C8.63596 2.66675 2.66663 8.63608 2.66663 16.0001C2.66663 23.3641 8.63596 29.3334 16 29.3334Z" stroke="white" stroke-width="2"/>
<path d="M16 29.3334C23.364 29.3334 29.3333 23.3641 29.3333 16.0001C29.3333 8.63608 23.364 2.66675 16 2.66675C8.63596 2.66675 2.66663 8.63608 2.66663 16.0001C2.66663 23.3641 8.63596 29.3334 16 29.3334Z" fill="white" stroke="white" stroke-width="2" stroke-linejoin="round"/>
<path d="M22 18L16 12L10 18" stroke="black" stroke-width="2" stroke-linecap="round" stroke-linejoin="round"/>
</mask>
<g mask="url(#mask0_1304_4658)">
<g filter="url(#filter0_iii_1304_4658)">
<path d="M0 0H32V32H0V0Z" fill="url(#paint0_linear_1304_4658)"/>
</g>
</g>
<defs>
<filter id="filter0_iii_1304_4658" x="0" y="-1" width="32" height="33" filterUnits="userSpaceOnUse" color-interpolation-filters="sRGB">
<feFlood flood-opacity="0" result="BackgroundImageFix"/>
<feBlend mode="normal" in="SourceGraphic" in2="BackgroundImageFix" result="shape"/>
<feColorMatrix in="SourceAlpha" type="matrix" values="0 0 0 0 0 0 0 0 0 0 0 0 0 0 0 0 0 0 127 0" result="hardAlpha"/>
<feOffset dy="-3"/>
<feComposite in2="hardAlpha" operator="arithmetic" k2="-1" k3="1"/>
<feColorMatrix type="matrix" values="0 0 0 0 0 0 0 0 0 0 0 0 0 0 0 0 0 0 0.1 0"/>
<feBlend mode="normal" in2="shape" result="effect1_innerShadow_1304_4658"/>
<feColorMatrix in="SourceAlpha" type="matrix" values="0 0 0 0 0 0 0 0 0 0 0 0 0 0 0 0 0 0 127 0" result="hardAlpha"/>
<feOffset dy="-1"/>
<feGaussianBlur stdDeviation="2"/>
<feComposite in2="hardAlpha" operator="arithmetic" k2="-1" k3="1"/>
<feColorMatrix type="matrix" values="0 0 0 0 0 0 0 0 0 0 0 0 0 0 0 0 0 0 0.25 0"/>
<feBlend mode="normal" in2="effect1_innerShadow_1304_4658" result="effect2_innerShadow_1304_4658"/>
<feColorMatrix in="SourceAlpha" type="matrix" values="0 0 0 0 0 0 0 0 0 0 0 0 0 0 0 0 0 0 127 0" result="hardAlpha"/>
<feMorphology radius="32" operator="dilate" in="SourceAlpha" result="effect3_innerShadow_1304_4658"/>
<feOffset dy="-52"/>
<feGaussianBlur stdDeviation="0.5"/>
<feComposite in2="hardAlpha" operator="arithmetic" k2="-1" k3="1"/>
<feColorMatrix type="matrix" values="0 0 0 0 0 0 0 0 0 0 0 0 0 0 0 0 0 0 0.07 0"/>
<feBlend mode="normal" in2="effect2_innerShadow_1304_4658" result="effect3_innerShadow_1304_4658"/>
</filter>
<linearGradient id="paint0_linear_1304_4658" x1="0" y1="0" x2="32.773" y2="0.812298" gradientUnits="userSpaceOnUse">
<stop stop-color="#E12151"/>
<stop offset="0.886518" stop-color="#FF646D"/>
</linearGradient>
</defs>
</svg>
